<svg xmlns="http://www.w3.org/2000/svg" viewBox="0 0 16.933 16.933" id="Mirror"><g color="#000" font-family="sans-serif" font-weight="400" fill="#595bd4" class="color000000 svgShape"><path d="M-123.353 45.185c-.728 0-1.323.595-1.323 1.323V58.68c0 .729.595 1.323 1.323 1.323h7.937c.729 0 1.323-.594 1.323-1.323V46.51c0-.729-.594-1.324-1.323-1.324zm0 .53h7.937c.445 0 .794.35.794.793V58.68c0 .445-.35.794-.794.794h-7.937a.786.786 0 0 1-.794-.794V46.51c0-.445.35-.794.794-.794z" overflow="visible" style="line-height:normal;font-variant-ligatures:normal;font-variant-position:normal;font-variant-caps:normal;font-variant-numeric:normal;font-variant-alternates:normal;font-feature-settings:normal;text-indent:0;text-align:start;text-decoration-line:none;text-decoration-style:solid;text-decoration-color:#000;text-transform:none;text-orientation:mixed;shape-padding:0;isolation:auto;mix-blend-mode:normal" transform="translate(127.851 -44.127)" fill="#595bd4" class="color000000 svgShape"></path><path d="M-122.824 46.244a.798.798 0 0 0-.794.794V58.15c0 .435.359.794.794.794h6.88a.798.798 0 0 0 .793-.794V47.038a.798.798 0 0 0-.794-.794zm0 .529h6.88c.15 0 .264.113.264.265V58.15a.258.258 0 0 1-.265.265h-6.879a.258.258 0 0 1-.264-.265V47.038c0-.152.113-.265.264-.265z" overflow="visible" style="line-height:normal;font-variant-ligatures:normal;font-variant-position:normal;font-variant-caps:normal;font-variant-numeric:normal;font-variant-alternates:normal;font-feature-settings:normal;text-indent:0;text-align:start;text-decoration-line:none;text-decoration-style:solid;text-decoration-color:#000;text-transform:none;text-orientation:mixed;shape-padding:0;isolation:auto;mix-blend-mode:normal" transform="translate(127.851 -44.127)" fill="#595bd4" class="color000000 svgShape"></path><path d="m-117.984 50.82-3.174 3.175a.238.238 0 0 0-.078.186c0 .066.03.14.072.183a.313.313 0 0 0 .192.082.238.238 0 0 0 .187-.078l3.176-3.174c.151-.152.074-.452-.188-.452a.251.251 0 0 0-.187.077zm-2.905 1.316c-.25.25.125.625.375.375l1.056-1.058c.156-.15.051-.447-.19-.447a.263.263 0 0 0-.183.072l-1.058 1.058zm1.587 1.588c-.25.25.125.625.375.375l1.057-1.059c.155-.15.05-.446-.191-.446a.263.263 0 0 0-.182.071l-1.059 1.059z" overflow="visible" style="line-height:normal;font-variant-ligatures:normal;font-variant-position:normal;font-variant-caps:normal;font-variant-numeric:normal;font-variant-alternates:normal;font-feature-settings:normal;text-indent:0;text-align:start;text-decoration-line:none;text-decoration-style:solid;text-decoration-color:#000;text-transform:none;text-orientation:mixed;shape-padding:0;isolation:auto;mix-blend-mode:normal" transform="translate(127.851 -44.127)" fill="#595bd4" class="color000000 svgShape"></path></g></svg>