<svg xmlns="http://www.w3.org/2000/svg" viewBox="0 0 64 64" id="MoneyBag"><path d="M43.3 25.6c-.8 1.5-2.3 2.5-4.1 2.5H24.9c-1.8 0-3.4-1-4.1-2.5-5.6 3.7-9.1 10.1-9.1 17C11.6 63 21.5 63 32 63s20.4 0 20.4-20.4c0-6.9-3.5-13.3-9.1-17zm-7.1 24.9c-.8.8-1.8 1.2-3.2 1.4V54h-1.8v-2.2c-1.5-.2-2.6-.7-3.4-1.6-.8-.9-1.2-2.1-1.2-3.5h2.7c0 .9.2 1.7.7 2.2s1.1.8 2 .8c.8 0 1.5-.2 1.9-.6.4-.4.7-.9.7-1.6 0-.6-.2-1.2-.6-1.6-.4-.4-1.1-.8-2-1.1-.9-.3-1.7-.6-2.2-.9-1.7-.9-2.6-2.3-2.6-4.1 0-1.2.4-2.2 1.1-3 .8-.8 1.8-1.3 3.1-1.4V33h1.8v2.5c1.3.2 2.3.7 3 1.6.7.9 1.1 2.1 1.1 3.5h-2.7c0-.9-.2-1.7-.6-2.2-.4-.5-1-.8-1.7-.8s-1.3.2-1.7.6c-.4.2-.6.8-.6 1.5 0 .6.2 1.2.6 1.5.4.4 1.1.8 2 1.1.9.3 1.7.7 2.2 1s1 .6 1.4 1 .7.8.9 1.3.3 1.1.3 1.8c0 1.3-.4 2.3-1.2 3.1z" fill="#d8a353" class="color000000 svgShape"></path><path d="M41.9 20.1v3.4c0 1.5-1.2 2.7-2.7 2.7H24.9c-1.5 0-2.7-1.2-2.7-2.7v-3.4c0-1.5 1.2-2.7 2.7-2.7h14.3c1.4 0 2.7 1.2 2.7 2.7zm4-17.8-5.1 13.5c-.5-.2-1.1-.3-1.7-.3H24.9c-.6 0-1.2.1-1.7.3L18.1 2.3c-.2-.4 0-.9.4-1.2s.9-.2 1.2.1l2.9 3c1.4 1.4 3 2.1 4.5 1.9 1.2-.1 2.2-.8 2.9-2V4c.4-.8 1.2-1.3 2.1-1.3.9 0 1.7.5 2.1 1.3l.2.3c.6 1.2 1.6 1.9 2.9 2 1.6.2 3.3-.6 4.7-2.3 1.3-1.5 2.3-2.7 2.3-2.7.3-.4.8-.5 1.2-.2s.6.8.4 1.2z" fill="#d8a353" class="color000000 svgShape"></path></svg>